<?xml version="1.0" standalone="no"?>
<!DOCTYPE svg PUBLIC "-//W3C//DTD SVG 20010904//EN"
 "http://www.w3.org/TR/2001/REC-SVG-20010904/DTD/svg10.dtd">
<svg version="1.0" xmlns="http://www.w3.org/2000/svg"
 width="625.000000pt" height="625.000000pt" viewBox="0 0 625.000000 625.000000"
 preserveAspectRatio="xMidYMid meet">
<metadata>
Created by potrace 1.11, written by Peter Selinger 2001-2013
</metadata>
<g transform="translate(0.000000,625.000000) scale(0.100000,-0.100000)"
fill="#000000" stroke="none">
<path d="M2900 5964 c-118 -11 -337 -47 -445 -73 -1033 -253 -1843 -1064
-2096 -2096 -58 -240 -73 -372 -73 -670 0 -298 15 -430 73 -670 253 -1032
1064 -1843 2096 -2096 240 -58 372 -73 670 -73 298 0 430 15 670 73 1032 253
1843 1064 2096 2096 58 240 73 372 73 670 0 298 -15 430 -73 670 -275 1125
-1202 1971 -2351 2146 -131 20 -519 34 -640 23z m87 -720 c135 -64 192 -237
125 -376 -34 -68 -1039 -1065 -1108 -1098 -101 -49 -238 -26 -316 53 -85 85
-109 220 -56 322 35 67 1043 1073 1103 1100 86 40 166 40 252 -1z m1404 -1407
c48 -31 73 -86 64 -140 -7 -40 -62 -97 -1144 -1172 -625 -622 -1173 -1165
-1218 -1208 -78 -73 -84 -77 -128 -77 -25 0 -59 7 -76 15 -61 32 -87 121 -55
183 19 36 2386 2388 2422 2407 42 22 96 19 135 -8z m-1806 -508 c42 -37 59
-89 45 -139 -8 -27 -144 -170 -632 -656 -672 -671 -658 -659 -737 -635 -82 24
-126 124 -88 197 16 31 1227 1232 1262 1252 11 6 41 12 67 12 39 0 54 -6 83
-31z m2465 -150 c102 -46 163 -141 164 -254 2 -128 10 -118 -572 -691 -337
-333 -533 -519 -561 -534 -129 -66 -291 -14 -368 117 -20 34 -27 63 -31 118
-9 136 -22 119 565 700 284 281 525 516 536 524 63 45 192 54 267 20z"/>
</g>
</svg>
